<svg width="1694" height="301" viewBox="0 0 1694 301" fill="none" xmlns="http://www.w3.org/2000/svg">
<path d="M300.091 233V57.8727H347.636V126.282H410.572V57.8727H458.116V233H410.572V164.591H347.636V233H300.091ZM544.312 235.394C530.288 235.394 518.202 232.715 508.055 227.356C497.965 221.941 490.183 214.188 484.71 204.097C479.295 193.95 476.587 181.807 476.587 167.669C476.587 154.102 479.323 142.244 484.796 132.097C490.269 121.949 497.993 114.054 507.97 108.41C517.946 102.766 529.718 99.9443 543.286 99.9443C553.205 99.9443 562.184 101.484 570.222 104.562C578.26 107.64 585.129 112.115 590.83 117.987C596.531 123.802 600.92 130.871 603.999 139.194C607.077 147.517 608.616 156.895 608.616 167.327V178.273H491.295V152.277H565.177C565.12 148.515 564.151 145.208 562.269 142.358C560.445 139.451 557.965 137.199 554.83 135.603C551.751 133.949 548.245 133.123 544.312 133.123C540.492 133.123 536.986 133.949 533.794 135.603C530.602 137.199 528.036 139.422 526.098 142.272C524.217 145.123 523.219 148.458 523.105 152.277V180.325C523.105 184.544 523.989 188.306 525.756 191.613C527.523 194.919 530.06 197.513 533.366 199.394C536.673 201.275 540.663 202.216 545.338 202.216C548.587 202.216 551.552 201.76 554.231 200.848C556.968 199.936 559.305 198.624 561.243 196.914C563.181 195.147 564.607 193.038 565.519 190.586H608.616C607.134 199.708 603.628 207.632 598.099 214.359C592.569 221.028 585.243 226.216 576.122 229.922C567.058 233.57 556.455 235.394 544.312 235.394ZM664.477 235.052C656.097 235.052 648.686 233.684 642.244 230.948C635.859 228.154 630.842 223.936 627.194 218.292C623.545 212.648 621.721 205.465 621.721 196.743C621.721 189.56 622.947 183.432 625.398 178.358C627.849 173.228 631.27 169.038 635.659 165.788C640.049 162.539 645.151 160.059 650.966 158.349C656.838 156.638 663.166 155.527 669.949 155.014C677.303 154.444 683.204 153.759 687.65 152.961C692.154 152.106 695.403 150.938 697.399 149.455C699.394 147.916 700.392 145.892 700.392 143.384V143.042C700.392 139.622 699.08 136.999 696.458 135.175C693.836 133.351 690.472 132.439 686.368 132.439C681.864 132.439 678.187 133.436 675.337 135.432C672.543 137.37 670.862 140.363 670.292 144.41H626.852C627.422 136.429 629.959 129.075 634.462 122.348C639.023 115.564 645.664 110.149 654.386 106.101C663.109 101.997 673.997 99.9443 687.052 99.9443C696.458 99.9443 704.895 101.056 712.363 103.279C719.831 105.446 726.187 108.495 731.432 112.429C736.677 116.306 740.667 120.866 743.404 126.111C746.197 131.298 747.594 136.942 747.594 143.042V233H703.47V214.53H702.444C699.821 219.432 696.629 223.394 692.867 226.416C689.161 229.437 684.914 231.632 680.125 233C675.394 234.368 670.177 235.052 664.477 235.052ZM679.869 205.294C683.46 205.294 686.824 204.553 689.959 203.071C693.152 201.589 695.745 199.451 697.741 196.658C699.736 193.864 700.734 190.472 700.734 186.482V175.536C699.479 176.049 698.14 176.534 696.715 176.99C695.346 177.446 693.864 177.874 692.268 178.273C690.729 178.672 689.075 179.042 687.308 179.384C685.598 179.726 683.802 180.04 681.921 180.325C678.273 180.895 675.28 181.836 672.942 183.147C670.662 184.401 668.952 185.969 667.812 187.85C666.729 189.674 666.187 191.727 666.187 194.007C666.187 197.655 667.47 200.449 670.035 202.387C672.6 204.325 675.878 205.294 679.869 205.294ZM817.35 57.8727V233H770.147V57.8727H817.35ZM919.728 101.655V135.859H833.191V101.655H919.728ZM849.951 70.1864H897.153V190.757C897.153 192.582 897.467 194.121 898.094 195.375C898.721 196.572 899.69 197.484 901.001 198.111C902.312 198.681 903.994 198.966 906.046 198.966C907.471 198.966 909.125 198.795 911.006 198.453C912.944 198.111 914.369 197.826 915.282 197.598L922.122 230.777C920.013 231.404 916.992 232.173 913.058 233.086C909.182 233.998 904.564 234.596 899.205 234.881C888.374 235.451 879.281 234.34 871.927 231.546C864.573 228.696 859.044 224.221 855.338 218.121C851.633 212.021 849.837 204.382 849.951 195.204V70.1864ZM989.014 159.118V233H941.811V57.8727H987.304V126.624H988.672C991.636 118.244 996.567 111.716 1003.47 107.042C1010.36 102.31 1018.66 99.9443 1028.35 99.9443C1037.64 99.9443 1045.71 102.054 1052.55 106.272C1059.45 110.491 1064.78 116.306 1068.54 123.716C1072.36 131.127 1074.24 139.622 1074.18 149.199V233H1026.98V159.118C1027.04 152.619 1025.41 147.517 1022.11 143.812C1018.86 140.106 1014.21 138.253 1008.17 138.253C1004.35 138.253 1000.99 139.109 998.078 140.819C995.228 142.472 993.004 144.866 991.408 148.002C989.869 151.08 989.071 154.786 989.014 159.118Z" fill="#0EC8CE"/>
<path d="M1102.76 233V57.8727H1150.3V194.691H1221.11V233H1102.76ZM1241.01 233V101.655H1288.21V233H1241.01ZM1264.61 87.9727C1258.23 87.9727 1252.75 85.8635 1248.19 81.6449C1243.63 77.4263 1241.35 72.3527 1241.35 66.4239C1241.35 60.4951 1243.63 55.4214 1248.19 51.2029C1252.75 46.9843 1258.23 44.875 1264.61 44.875C1271.05 44.875 1276.53 46.9843 1281.03 51.2029C1285.59 55.4214 1287.87 60.4951 1287.87 66.4239C1287.87 72.3527 1285.59 77.4263 1281.03 81.6449C1276.53 85.8635 1271.05 87.9727 1264.61 87.9727ZM1359.46 159.118V233H1312.26V101.655H1357.07V126.624H1358.44C1361.29 118.301 1366.31 111.773 1373.49 107.042C1380.73 102.31 1389.17 99.9443 1398.8 99.9443C1408.09 99.9443 1416.16 102.082 1423 106.358C1429.9 110.576 1435.23 116.391 1438.99 123.802C1442.81 131.213 1444.69 139.679 1444.63 149.199V233H1397.43V159.118C1397.49 152.619 1395.84 147.517 1392.47 143.812C1389.17 140.106 1384.55 138.253 1378.62 138.253C1374.74 138.253 1371.35 139.109 1368.44 140.819C1365.59 142.472 1363.4 144.866 1361.86 148.002C1360.32 151.08 1359.52 154.786 1359.46 159.118ZM1510.35 201.874L1510.69 145.778H1516.85L1548.66 101.655H1601.68L1548.32 170.406H1534.98L1510.35 201.874ZM1467.94 233V57.8727H1515.14V233H1467.94ZM1549 233L1518.9 181.009L1549.68 147.489L1603.04 233H1549Z" fill="#51A1F1"/>
<path d="M12 257.514H72.4874M77.1402 258.678L130.648 53.951V173.763C158.922 167.384 168.202 181.017 164.382 258.678H217.89L258.602 53.951L278.377 258.678H359.802" stroke="url(#paint0_linear_11_106)" stroke-width="23.2644" stroke-linecap="round"/>
<defs>
<linearGradient id="paint0_linear_11_106" x1="12" y1="156.314" x2="359.802" y2="156.314" gradientUnits="userSpaceOnUse">
<stop offset="0.5" stop-color="#0EC8CE"/>
<stop offset="0.7" stop-color="#51A1F1"/>
</linearGradient>
</defs>
</svg>
